@startuml
class "Image" as C_0001764073242192532238
class C_0001764073242192532238 {
+Image() = default : void
+Image(int width, int height, int channels) : void
+Image(int width, int height, int channels, std::unique_ptr<unsigned char[]> image_data) : void
+Image(const Image & other) : void
+Image(Image &&) noexcept = default : void
+~Image() constexpr = default : void
..
+operator=(const Image & other) : Image &
+operator=(Image &&) constexpr noexcept = default : Image &
..
+channels() const : int
+data() const : unsigned char *
+get_pixel(int x, int y) const : std::vector<unsigned char>
+height() const : int
+initialize(int width, int height, int channels, std::unique_ptr<unsigned char[]> image_data) : void
+set_pixel(int x, int y, const std::vector<unsigned char> & values) : void
+width() const : int
__
-channels_ : int
-height_ : int
-image_data_ : std::unique_ptr<unsigned char[]>
-width_ : int
}
abstract "Component" as C_0000406813343211604253
abstract C_0000406813343211604253 {
+Component(std::string label) : void
+~Component() constexpr = default : void
..
{abstract} +draw() = 0 : void
__
#label_ : std::string
}
class "ImageEditor" as C_0000601154877475481518
class C_0000601154877475481518 {
+ImageEditor(const std::string & label, const std::string & filename) : void
+~ImageEditor() : void
..
+draw() : void
-draw_image() const : void
+get_image_size() const : ImVec2
-load_gltexture() const : void
+save_to_disk(const std::string & filename) : void
+set_position(const ImVec2 & pos) : void
+update() : void
__
#data_ : std::shared_ptr<Image>
#filename_ : std::string
#image_height_ : int
#image_width_ : int
#position_ : ImVec2
#tex_id_ : GLuint
}
abstract "Warp" as C_0001595410893161647214
abstract C_0001595410893161647214 {
+Warp(const ImVec2 & size, const std::vector<ImVec2> & control_points, const std::vector<ImVec2> & target_points) : void
+~Warp() constexpr = default : void
..
{abstract} +warmup() = 0 : void
{abstract} +warp(const Eigen::Vector2f & point) = 0 : Eigen::Vector2f
__
#control_points_ : std::vector<Eigen::Vector2f>
#size_ : ImVec2
#target_points_ : std::vector<Eigen::Vector2f>
}
class "FishEye" as C_0000601016111793055166
class C_0000601016111793055166 {
+Warp(const ImVec2 &, const std::vector<ImVec2> &, const std::vector<ImVec2> &) : void
+warmup() : void
+warp(const Eigen::Vector2f & point) : Eigen::Vector2f
__
}
class "IDW" as C_0001927117468043333836
class C_0001927117468043333836 {
+Warp(const ImVec2 &, const std::vector<ImVec2> &, const std::vector<ImVec2> &) : void
+warmup() : void
+warp(const Eigen::Vector2f & point) : Eigen::Vector2f
__
-Ds_ : std::vector<Eigen::Matrix2f>
}
class "RBF" as C_0002162317532665236362
class C_0002162317532665236362 {
+Warp(const ImVec2 &, const std::vector<ImVec2> &, const std::vector<ImVec2> &) : void
+warmup() : void
+warp(const Eigen::Vector2f & point) : Eigen::Vector2f
__
-alpha_x_list_ : std::vector<float>
-alpha_y_list_ : std::vector<float>
-min_radius_ : std::vector<float>
}
class "CompWarping" as C_0001147325464576664787
class C_0001147325464576664787 {
+CompWarping(const std::string & label, const std::string & filename) : void
+~CompWarping() noexcept = default : void
..
{static} +all_types() constexpr : std::vector<WarpType>
{static} +create_warp(WarpType type, const ImVec2 & size, const std::vector<ImVec2> & start_points, const std::vector<ImVec2> & end_points) : std::shared_ptr<Warp>
+draw() : void
+enable_selecting(bool flag) : void
+gray_scale() : void
+init_selections() : void
+invert() : void
+mirror(bool is_horizontal, bool is_vertical) : void
{static} +name(const WarpType & type) constexpr : std::string
+restore() : void
+select_points() : void
+warping(WarpType type) : void
__
-back_up_ : std::shared_ptr<Image>
-draw_status_ : bool
-end_ : ImVec2
-end_points_ : std::vector<ImVec2>
-flag_enable_selecting_points_ : bool
-start_ : ImVec2
-start_points_ : std::vector<ImVec2>
}
enum "CompWarping::WarpType" as C_0001380342016375746641
enum C_0001380342016375746641 {
kDefault
kIDW
kRBF
kFishEye
}
class "Window" as C_0000701994109645822129
class C_0000701994109645822129 {
+Window(const std::string & window_name) : void
+~Window() : void
..
#draw() : void
+init() : bool
#init_glfw() : bool
#init_gui() : bool
#render() : void
+run() : void
__
#height_ : int
#name_ : std::string
#width_ : int
#window_ : GLFWwindow *
}
class "ImageWarping" as C_0001974902857875116476
class C_0001974902857875116476 {
+ImageWarping(const std::string & window_name) : void
+~ImageWarping() = default : void
..
+draw() : void
-draw_image() : void
-draw_open_image_file_dialog() : void
-draw_save_image_file_dialog() : void
-draw_toolbar() : void
__
-flag_open_file_dialog_ : bool
-flag_save_file_dialog_ : bool
-flag_show_main_view_ : bool
-p_image_ : std::shared_ptr<CompWarping>
}
C_0000601154877475481518 --> C_0001764073242192532238 : #data_
C_0000406813343211604253 <|-- C_0000601154877475481518
C_0001595410893161647214 <|-- C_0000601016111793055166
C_0001595410893161647214 <|-- C_0001927117468043333836
C_0001595410893161647214 <|-- C_0002162317532665236362
C_0001147325464576664787 ..> C_0001595410893161647214
C_0001147325464576664787 --> C_0001764073242192532238 : -back_up_
C_0000601154877475481518 <|-- C_0001147325464576664787
C_0001380342016375746641 --+ C_0001147325464576664787
C_0001974902857875116476 --> C_0001147325464576664787 : -p_image_
C_0000701994109645822129 <|-- C_0001974902857875116476

'Generated with clang-uml, version 0.5.1-3-g0fac87c
'LLVM version clang version 16.0.6
@enduml
